<svg xmlns="http://www.w3.org/2000/svg" height="2384" width="2836"><defs><clipPath id="a"><path d="M0 1788h2127V0H0z"/></clipPath><clipPath id="b"><path d="M417.3 405.8h115.4V220.2H417.3z"/></clipPath><clipPath id="c"><path d="M1048.2 994.2h231.4V805.7h-231.4z"/></clipPath><clipPath id="d"><path d="M323.7 1298.3H1063V297.6H323.7z"/></clipPath><clipPath id="e"><path d="M541.7 1061.4h170.7V883.8H541.7z"/></clipPath><clipPath id="f"><path d="M848 1082.5h150.5V926H848z"/></clipPath></defs><path d="M2050.5 1944.6l45.7-30.7 34-243 64.8 565 21.5-46v-519l-133-11zm289-1715l-46-15.4L2275 285l64.2 12z" fill="#d1a765"/><g clip-path="url(#a)" transform="matrix(1.33333 0 0 -1.33333 0 2384)"><path d="M1414.8 571.8L1252 239.6l62.3-37 166 332h57.6L1494 341l44-11.4 38.5 179.8 7.2-378s55.5-27.7 62.4-20.8c7 7-17 433.4-17 433.4z" fill="#e5be7a"/><path d="M1288.6 1597.7h707.7l-113-1117-735.3 143z" fill="#f1f0f0"/><path d="M1353.5 219l-39.2-16.3 166 332h39.2zm352.7 1484.4l-20.8 20.8-23-123.4h23z" fill="#d1a765"/><path d="M2047.3 1581.2l-51 16.5-113-1117-735.3 143 46.4-40.6L1923 443z" fill="#e5e5e5"/><path d="M1549.4 1627.3l-11.5-53h168l13 53z" fill="#e5be7a"/><path d="M1629 1724.2l-22-123.4h55.4l23 123.4z" fill="#e5be7a"/><path d="M417.6 397.7S415 263 427.6 239c12.5-24 35-26 57.5 0 23 26 48 126.2 48 126.2s-57 62.5-115 32.5" fill="#d44342"/><g clip-path="url(#b)" opacity=".6"><path d="M417.6 397.7S415 263 427.6 239c12.5-24 35-26 57.5 0 23 26 48 126.2 48 126.2s-57 62.5-115 32.5" fill="#c63838"/></g><path d="M848 365.2s25.5-97.6 51.5-115.2c26-17.5 53.5 7.5 52.3 47.6-1.2 40-21.8 97.6-21.8 97.6zm227.7 540.5s65 3.7 90 12c25 8 72 85.6 102.3 75.6 30.4-10-5-99.5-37-132.6-32.3-33.2-83.8-51.3-120.8-54.4-37-3.2-62 7.8-62 7.8" fill="#d44342"/><g clip-path="url(#c)" opacity=".4"><path d="M1075.7 905.7s65 3.7 90 12c25 8 72 85.6 102.3 75.6 30.4-10-5-99.5-37-132.6-32.3-33.2-83.8-51.3-120.8-54.4-37-3.2-62 7.8-62 7.8" fill="#c63838"/></g><path d="M1115.8 688c0-289-169.6-390.4-396-390.4-226.6 0-396 101.5-396 390.4 0 288.8 89.2 616 396 616 304.3 0 396-327.2 396-616" fill="#d44342"/><g clip-path="url(#d)" opacity=".6"><path d="M529.7 941.6c-13 144.2 36 249.3 126.6 356.7C400.5 1252 323.7 955.8 323.7 688c0-289 169.5-390.4 396-390.4 150.8 0 276.2 45 343.3 160.3-279.4 16-509 216-533.3 483" fill="#c63838"/></g><path d="M736.6 976c0-56.2-45.6-102-102-102-56.3 0-102 45.8-102 102 0 56.4 45.7 102 102 102 56.4 0 102-45.6 102-102" fill="#fff"/><path d="M694 1001.4c-3.2-19.2-21.5-32-40.7-28.7-19.2 3.3-32 21.6-28.8 40.8 3.4 19.2 21.6 32 40.8 28.7 19.2-3.3 32-21.6 28.8-40.8" fill="#0c0808"/><path d="M665.4 1013.3c-1.2-6.8-7.7-11.5-14.6-10.3-7 1.2-11.5 7.8-10.3 14.6 1.2 7 7.7 11.5 14.6 10.3 7-2 12-8 11-15" fill="#fff"/><g clip-path="url(#e)" opacity=".2"><path d="M670.8 914.4c-51.7 0-93.7 42-93.7 93.6 0 20 7 38.2 17 53.4-31-15.4-52-47-52-84 0-51.6 42-93.6 94-93.6 32 0 60 16 77 40.4-12-6.3-26-9.8-41-9.8" fill="#c63838"/></g><path d="M1020 1007.4c0-49.6-40.3-89.8-90-89.8-49.6 0-89.8 40.2-89.8 89.8 0 49.7 40.2 90 89.8 90 49.7 0 90-40.3 90-90" fill="#fff"/><path d="M982.4 1029.7c-3-17-19-28.2-36-25.3-17 3-28.2 19-25.3 36 3 17 19 28.2 36 25.3 17-3 29-19 26-36" fill="#0c0808"/><path d="M957 1040.2c-1-6-6.7-10-12.7-9-6 1-10.2 6.8-9 12.8 1 6 6.7 10.2 12.8 9 6-1 11-6.7 9-12.8" fill="#fff"/><g clip-path="url(#f)" opacity=".2"><path d="M962 953c-45.7 0-82.7 37-82.7 82.6 0 17.4 5.5 33.6 14.8 47-27-13.6-46-41.5-46-74 0-45.6 37-82.6 83-82.6 28 0 53 14.3 68 35.8-11-5.5-23-8.7-36-8.7" fill="#c63838"/></g><path d="M962.2 811.2c0-76.7-62.2-139-139-139-76.6 0-138.8 62.3-138.8 139s62.2 0 139 0c76.6 0 138.8 76.7 138.8 0" fill="#071b28"/><path d="M899.5 705c-22.6 30.5-58.8 50.2-99.7 50.2-29.2 0-56-10-77.2-27 22.6-30.5 58.8-50.2 99.7-50.2 29.2 0 56 10 77.2 27" fill="#d44342"/><path d="M251 589.6c-8.3-20.6-26.6-32.5-41-26.7l127.2-52c14.3-6 32.6 6 41 26 8.2 20 3.3 42-11 47l-127 51c14.2-5.6 19-27 10.8-47.4" fill="#1f8299"/><path d="M406.2 566.6l-13.5 5.4-105.4 42.5-13.5 5.5c-13 5.2-30-5.7-37.5-24.5-7.6-18.8-3-38.4 10-43.7l13.5-5.4L365.2 504l13.5-5.5c13-5.3 30 5.7 37.5 24.5 7.6 18.8 3 38.3-10 43.6" fill="#fff9c5"/><path d="M326.3 559.2c8.2 20.5 26.5 32.5 40.8 26.7l-127 51c-14 6-32-6-40-27s-3-42 11-48l127-52c-14 6-19 27-11 47.2" fill="#39a7c4"/><path d="M219.3 602.3c8.3 20.6 26.6 32.5 41 26.7l-20.2 8c-14 6-32-6-40-26.5-8-20.6-3-42 11-47.6l20-9c-14 5-19 27-11 47" fill="#071b28"/><path d="M367 775c-10.5-3.3-27.2-10.5-44.8-24-29.4-23-79.3-66.4-80.2-143.7-.5-46.2 18.2-107.3 49-99.2 31 9 28.3 99 45 120 16.4 21 69 59 69 59s22.4 25 16 56c-6.6 30.8-21.5 43.8-54 33.7m1050 628c-24.7-6-70.8-95.2-70.8-95.2l70.7-23z" fill="#d44342"/><path d="M1533.3 974.4L1607 913l-73.7-52.3-43 77zm-262.8 131.2l43-106-73.8-52-43 76.7z" fill="#11a4ce"/><path d="M1859.5 1089L1721 1252.2 1595.2 1133l133.5-25.6 30.4-80.4z" fill="#f9ed80"/></g></svg>